# AST/ASF file generated using VICON BodyLanguage
# -----------------------------------------------
:version 1.10
:name VICON
:units
  mass 1.0
  length 0.45
  angle deg
:documentation
   .ast/.asf automatically generated from VICON data using
   VICON BodyBuilder and BodyLanguage model FoxedUp or BRILLIANT.MOD
:root
   order TX TY TZ RX RY RZ
   axis XYZ
   position 0 0 0  
   orientation 0 0 0 
:bonedata
  begin
     id 1 
     name lhipjoint
     direction 0.576517 -0.752066 0.319413 
     length 2.45433 
     axis 0 0 0  XYZ
  end
  begin
     id 2 
     name lfemur
     direction 0.34202 -0.939693 0  
     length 7.54459  
     axis 0 0 20  XYZ
    dof rx ry rz
    limits (-160.0 20.0)
           (-70.0 70.0)
           (-60.0 70.0)
  end
  begin
     id 3 
     name ltibia
     direction 0.34202 -0.939693 0   
     length 7.73986   
     axis 0 0 20   XYZ
    dof rx
    limits (-10.0 170.0)
  end
  begin
     id 4 
     name lfoot
     direction 0.090693 -0.249177 0.964202   
     length 2.28437   
     axis -90 7.62852e-016 20   XYZ
    dof rx rz
    limits (-45.0 90.0)
           (-70.0 20.0)
  end
  begin
     id 5 
     name ltoes
     direction 1.5356e-011 -4.21928e-011 1   
     length 1.14243   
     axis -90 7.62852e-016 20   XYZ
    dof rx
    limits (-90.0 20.0)
  end
  begin
     id 6 
     name rhipjoint
     direction -0.573937 -0.753736 0.320122   
     length 2.44889  
     axis 0 0 0  XYZ 
  end
  begin
     id 7 
     name rfemur
     direction -0.34202 -0.939693 0   
     length 7.50166   
     axis 0 0 -20   XYZ
    dof rx ry rz
    limits (-160.0 20.0)
           (-70.0 70.0)
           (-70.0 60.0)
  end
  begin
     id 8 
     name rtibia
     direction -0.34202 -0.939693 0   
     length 7.54266   
     axis 0 0 -20   XYZ
    dof rx
    limits (-10.0 170.0)
 end
 begin
     id 9 
     name rfoot
     direction -0.114017 -0.31326 0.942798   
     length 2.34212  
     axis -90 -7.62852e-016 -20   XYZ
    dof rx rz
    limits (-45.0 90.0)
           (-20.0 70.0)
  end
  begin
     id 10 
     name rtoes
     direction -1.53557e-011 -4.21867e-011 1   
     length 1.16246   
     axis -90 -7.62852e-016 -20   XYZ
    dof rx
    limits (-90.0 20.0)
  end
  begin
     id 11 
     name lowerback
     direction -0.0228371 0.999155 -0.034167   
     length 2.0537   
     axis 0 0 0   XYZ
    dof rx ry rz
    limits (-20.0 45.0)
           (-30.0 30.0)
           (-30.0 30.0)
  end
  begin
     id 12 
     name upperback
     direction 0.0198981 0.999794 0.00389455   
     length 2.05302   
     axis 0 0 0   XYZ
    dof rx ry rz
    limits (-20.0 45.0)
           (-30.0 30.0)
           (-30.0 30.0)
  end
  begin
     id 13 
     name thorax
     direction 0.0304566 0.99935 0.0192987   
     length 2.05315   
     axis 0 0 0   XYZ
    dof rx ry rz
    limits (-20.0 45.0)
           (-30.0 30.0)
           (-30.0 30.0)
  end
  begin
     id 14 
     name lowerneck
     direction -0.0196762 0.99417 0.106017   
     length 1.82056   
     axis 0 0 0   XYZ
    dof rx ry rz
    limits (-20.0 45.0)
           (-30.0 30.0)
           (-30.0 30.0)
  end
  begin
     id 15 
     name upperneck
     direction 0.00517787 0.9802 -0.197944   
     length 1.83835   
     axis 0 0 0   XYZ
    dof rx ry rz
    limits (-20.0 45.0)
           (-30.0 30.0)
           (-30.0 30.0)
  end
  begin
     id 16
     name head
     direction 0.00211419 0.996945 -0.078081  
     length 1.85629  
     axis 0 0 0   XYZ
    dof rx ry rz
    limits (-20.0 45.0)
           (-30.0 30.0)
           (-30.0 30.0)
  end
  begin
     id 17 
     name lclavicle
     direction 0.930001 0.365811 -0.0357824  
     length 3.81961  
     axis 0 0 0   XYZ
    dof ry rz
    limits (-20.0 10.0)
           (0.0 20.0)
  end
  begin
     id 18 
     name lhumerus
     direction 1 -4.48968e-011 -3.06644e-027   
     length 5.14507   
     axis 180 -30 -90   XYZ
    dof rx ry rz
    limits (-60.0 90.0)
           (-90.0 90.0)
           (-90.0 90.0)
  end
  begin
     id 19
     name lradius
     direction 1 -4.48965e-011 9.06925e-028   
     length 3.50646   
     axis 180 -30 -90   XYZ
    dof rx
    limits (-10.0 170.0)
  end
  begin
     id 20
     name lwrist
     direction 1 -4.48957e-011 1.03922e-027   
     length 1.75323   
     axis -2.56395e-016 90 90   XYZ
    dof ry
    limits (-180.0 0.0)
 end
  begin
     id 21 
     name lhand
     direction 1 -4.48967e-011 2.08017e-027   
     length 0.629969   
     axis -1.32723e-015 90 90   XYZ
    dof rx rz
    limits (-90.0 90.0)
           (-45.0 45.0)
  end
  begin
     id 22 
     name lfingers
     direction 1 -4.49089e-011 4.20095e-027   
     length 0.507897   
     axis -2.6545e-015 90 90   XYZ
    dof rx
    limits (0.0 90.0)
  end
  begin
     id 23
     name lthumb
     direction 0.707107 -6.35001e-011 0.707107   
     length 0.729241   
     axis -90 45 5.05613e-014   XYZ
    dof rx rz
    limits (-45.0 45.0)
           (-45.0 45.0)
  end
  begin
     id 24 
     name rclavicle
     direction -0.881882 0.464123 -0.0829113   
     length 3.47515  
     axis 0 0 0   XYZ 
    dof ry rz
    limits (-10.0 20.0)
           (-20.0 0.0)
  end
  begin
     id 25 
     name rhumerus
     direction -1 -4.48961e-011 -1.55672e-027  
     length 5.232   
     axis 180 30 90   XYZ
    dof rx ry rz
    limits (-90.0 60.0)
           (-90.0 90.0)
           (-90.0 90.0)
  end
  begin
     id 26 
     name rradius
     direction -1 -4.48963e-011 6.18178e-029   
     length 3.65641   
     axis 180 30 90   XYZ
    dof rx
    limits (-10.0 170.0)
  end
  begin
     id 27 
     name rwrist
     direction -1 -4.48982e-011 1.04136e-027   
     length 1.8282   
     axis -2.56395e-016 -90 -90   XYZ
    dof ry
    limits (-180.0 0.0)
  end
  begin
     id 28
     name rhand
     direction -1 -4.48929e-011 2.07378e-027   
     length 0.656807   
     axis -1.32723e-015 -90 -90   XYZ
    dof rx rz
    limits (-90.0 90.0)
           (-45.0 45.0)
  end
  begin
     id 29
     name rfingers
     direction -1 -4.489e-011 4.13816e-027   
     length 0.529535   
     axis -2.6545e-015 -90 -90   XYZ
    dof rx
    limits (0.0 90.0)
  end
  begin
     id 30
     name rthumb
     direction -0.707107 -6.34843e-011 0.707107   
     length 0.760309   
     axis -90 -45 -5.05613e-014   XYZ
    dof rx rz
    limits (-45.0 45.0)
           (-45.0 45.0)
  end
:hierarchy
  begin
    root lhipjoint rhipjoint lowerback
    lhipjoint lfemur
    lfemur ltibia
    ltibia lfoot
    lfoot ltoes
    rhipjoint rfemur
    rfemur rtibia
    rtibia rfoot
    rfoot rtoes
    lowerback upperback
    upperback thorax
    thorax lowerneck lclavicle rclavicle
    lowerneck upperneck
    upperneck head
    lclavicle lhumerus
    lhumerus lradius
    lradius lwrist
    lwrist lhand lthumb
    lhand lfingers
    rclavicle rhumerus
    rhumerus rradius
    rradius rwrist
    rwrist rhand rthumb
    rhand rfingers
  end

#!OML:ASF H:\ManfredETheater\Project 1\Capture day 1\Session 1\subject.ASF
:FULLY-SPECIFIED
:DEGREES
31
root 13.7741 14.801 27.1759 -165.283 -12.5165 187.918
lowerback 13.6263 7.25433 5.34229
upperback 2.8367 10.0814 2.02275
thorax -3.99109 4.76225 -2.45672
lowerneck -15.2261 -6.25039 -3.62246
upperneck -0.954319 -8.06811 1.04152
head 2.5179 -4.13611 0.399927
rclavicle -1.26427e-013 -7.95139e-016
rhumerus -32.3928 24.1533 -82.4883
rradius 122.725
rwrist -4.17798
rhand -21.2176 5.52983
rfingers 7.12502
rthumb 5.16427 -24.3872
lclavicle -1.26427e-013 -7.95139e-016
lhumerus -99.8665 -13.466 75.6712
lradius 93.1879
lwrist 10.548
lhand -17.2481 -20.1579
lfingers 7.12502
lthumb 8.99597 9.63028
rfemur 21.5755 2.47026 25.1401
rtibia 16.5177
rfoot 21.7309 7.95237
rtoes -34.4355
lfemur -75.8714 1.13342 -14.1975
ltibia 44.6289
lfoot -7.39909 -1.38507
ltoes -20.5149
32
root 13.6494 14.8182 26.5851 -165.576 -13.2915 188.482
lowerback 12.6961 7.34757 5.6045
upperback 2.51955 10.2368 1.84199
thorax -3.73163 4.86611 -2.69573
lowerneck -14.933 -6.57298 -3.48888
upperneck -0.345935 -8.4982 1.78114
head 2.71855 -4.29717 0.580918
rclavicle 1.36764e-013 -2.06736e-014
rhumerus -33.5729 23.4355 -83.8042
rradius 121.094
rwrist -3.63995
rhand -21.3643 5.17945
rfingers 7.12502
rthumb 5.02258 -24.741
lclavicle 1.36764e-013 -2.06736e-014
lhumerus -98.6672 -11.8118 73.7122
lradius 95.2006
lwrist 11.5522
lhand -17.6332 -19.6452
lfingers 7.12502
lthumb 8.62432 10.1586
rfemur 22.9864 3.93987 26.5669
rtibia 15.9391
rfoot 24.4563 7.20083
rtoes -33.2492
lfemur -75.4431 0.979056 -14.4424
ltibia 43.4838
lfoot -6.47434 -1.73789
ltoes -20.6186
33
root 13.5271 14.8413 26.0034 -165.784 -14.0944 188.938
lowerback 11.8498 7.36958 5.77932
upperback 2.15879 10.29 1.59056
thorax -3.57033 4.91621 -2.95979
lowerneck -14.6717 -6.82854 -3.34894
upperneck 0.18642 -8.86207 2.55407
head 2.9025 -4.42715 0.777694
rclavicle 5.1684e-014 -6.36111e-015
rhumerus -34.7011 22.5061 -85.379
rradius 118.903
rwrist -2.75643
rhand -21.3325 4.89566
rfingers 7.12502
rthumb 5.05334 -25.0241
lclavicle 5.1684e-014 -6.36111e-015
lhumerus -96.9733 -9.90167 72.2377
lradius 97.067
lwrist 12.6243
lhand -18.0554 -19.1573
lfingers 7.12502
lthumb 8.2169 10.6629
rfemur 22.5847 4.76205 27.7474
rtibia 18.8584
rfoot 24.5381 6.51372
rtoes -32.7232
lfemur -75.0737 0.813708 -14.7974
ltibia 43.1552
lfoot -5.26864 -2.4416
ltoes -19.992
34
root 13.4081 14.8745 25.4344 -165.988 -14.9184 189.226
lowerback 11.2069 7.30642 5.82377
upperback 1.79848 10.221 1.28219
thorax -3.54031 4.8996 -3.22828
lowerneck -14.4329 -7.0097 -3.2444
upperneck 0.606486 -9.14207 3.35601
head 3.05636 -4.51897 0.998873
rclavicle 2.16675e-014 -9.54166e-015
rhumerus -35.7112 21.4002 -87.0972
rradius 116.209
rwrist -1.63271
rhand -21.1846 4.6655
rfingers 7.12502
rthumb 5.1961 -25.2508
lclavicle 2.16675e-014 -9.54166e-015
lhumerus -94.7845 -7.75297 71.3665
lradius 98.7057
lwrist 13.7741
lhand -18.4842 -18.682
lfingers 7.12502
lthumb 7.80304 11.154
rfemur 20.9844 4.85945 28.5332
rtibia 24.1384
rfoot 22.8651 5.18819
rtoes -32.4433
lfemur -74.6598 0.597564 -15.2721
ltibia 43.5957
lfoot -3.78043 -3.3938
ltoes -18.3008
35
root 13.2943 14.92 24.8807 -166.26 -15.7828 189.287
lowerback 10.8626 7.14043 5.67955
upperback 1.49619 10.0012 0.942985
thorax -3.6532 4.80124 -3.45284
lowerneck -14.2661 -7.11623 -3.21296
upperneck 0.917127 -9.32688 4.1668
head 3.19027 -4.5685 1.24406
rclavicle -1.46504e-013 1.31198e-014
rhumerus -36.5137 20.1742 -88.8064
rradius 113.065
rwrist -0.449414
rhand -20.9997 4.47803
rfingers 7.12502
rthumb 5.37464 -25.4338
lclavicle -1.46504e-013 1.31198e-014
lhumerus -92.0568 -5.41664 71.1828
lradius 100.01
lwrist 14.9769
lhand -18.9131 -18.1494
lfingers 7.12502
lthumb 7.38903 11.7015
rfemur 18.8011 4.28819 28.8711
rtibia 30.6307
rfoot 20.4471 2.87787
rtoes -31.9237
lfemur -74.1197 0.278641 -15.8704
ltibia 44.7106
lfoot -2.15589 -4.46944
ltoes -15.6749
36
root 13.1865 14.9767 24.3441 -166.65 -16.6836 189.103
lowerback 10.8693 6.87191 5.33186
upperback 1.27912 9.62883 0.595973
thorax -3.91673 4.62027 -3.60543
lowerneck -14.145 -7.14959 -3.2568
upperneck 1.11283 -9.41196 4.94991
head 3.29398 -4.57519 1.50366
rclavicle 6.10269e-014 -7.95139e-015
rhumerus -37.0868 18.8783 -90.379
rradius 109.526
rwrist 0.61463
rhand -20.8627 4.31637
rfingers 7.12502
rthumb 5.50691 -25.5921
lclavicle 6.10269e-014 -7.95139e-015
lhumerus -88.7566 -3.01233 71.7225
lradius 100.856
lwrist 16.1771
lhand -19.3637 -17.7764
lfingers 7.12502
lthumb 6.9541 12.0894
rfemur 16.3599 3.17536 28.7618
rtibia 37.742
rfoot 17.7825 -0.0904774
rtoes -31.1858
lfemur -73.3885 -0.149042 -16.6137
ltibia 46.349
lfoot -0.551977 -5.57558
ltoes -12.33
37
root 13.0859 15.0426 23.8246 -167.212 -17.6474 188.682
lowerback 11.2528 6.50235 4.77144
upperback 1.17791 9.09757 0.269972
thorax -4.31693 4.35488 -3.64385
lowerneck -14.0607 -7.11764 -3.36679
upperneck 1.20172 -9.40331 5.68373
head 3.36534 -4.54257 1.76897
rclavicle -4.48259e-014 4.17448e-015
rhumerus -37.4052 17.576 -91.7108
rradius 105.628
rwrist 1.37672
rhand -20.8884 4.15421
rfingers 7.12502
rthumb 5.48208 -25.7549
lclavicle -4.48259e-014 4.17448e-015
lhumerus -84.8246 -0.687102 72.9654
lradius 101.14
lwrist 17.3136
lhand -19.8335 -17.5299
lfingers 7.12502
lthumb 6.50056 12.3503
rfemur 13.8407 1.65518 28.255
rtibia 45.1778
rfoot 15.0701 -3.20176
rtoes -30.2451
lfemur -72.3531 -0.693815 -17.4866
ltibia 48.3182
lfoot 0.715523 -6.6629
ltoes -8.35334
38
root 12.9916 15.1143 23.3228 -167.928 -18.679 188.056
lowerback 11.9664 6.05131 4.02524
upperback 1.19196 8.42448 -0.0224426
thorax -4.81803 4.01591 -3.55168
lowerneck -14.0236 -7.0331 -3.52322
upperneck 1.21913 -9.31576 6.34419
head 3.41515 -4.47729 2.02653
rclavicle 1.87355e-014 -2.21148e-014
rhumerus -37.4549 16.305 -92.7093
rradius 101.402
rwrist 1.71127
rhand -21.1326 4.00224
rfingers 7.12502
rthumb 5.24635 -25.9128
lclavicle 1.87355e-014 -2.21148e-014
lhumerus -80.2051 1.37877 74.8582
lradius 100.764
lwrist 18.2789
lhand -20.3409 -17.5002
lfingers 7.12502
lthumb 6.01069 12.3945
rfemur 11.2477 -0.156675 27.3762
rtibia 52.8367
rfoot 12.3945 -5.86054
rtoes -29.4025
lfemur -71.0279 -1.33136 -18.4838
ltibia 50.4486
lfoot 1.36292 -7.61166
ltoes -4.35807
39
root 12.9021 15.1943 22.8376 -168.752 -19.7445 187.246
lowerback 12.9418 5.57212 3.0978
upperback 1.29886 7.66767 -0.285951
thorax -5.38976 3.63504 -3.32206
lowerneck -14.14 -6.91434 -3.60139
upperneck 1.53158 -9.19863 7.03536
head 3.21013 -4.37848 2.06213
rclavicle 1.86361e-014 -3.51352e-014
rhumerus -37.2647 15.0569 -93.3083
rradius 96.9108
rwrist 1.54269
rhand -21.5763 3.88949
rfingers 7.12502
rthumb 4.81789 -26.0357
lclavicle 1.86361e-014 -3.51352e-014
lhumerus -74.8736 2.92169 77.3116
lradius 99.6797
lwrist 19.0459
lhand -20.897 -17.7731
lfingers 7.12502
lthumb 5.47376 12.1362
rfemur 8.56881 -2.11705 26.1378
rtibia 60.6152
rfoot 9.90078 -7.63944
rtoes -28.173
lfemur -69.3735 -2.0198 -19.5893
ltibia 52.546
lfoot 1.29346 -8.30483
ltoes -0.797686
40
root 12.8172 15.2626 22.3707 -169.599 -20.8169 186.272
lowerback 14.0612 5.11416 2.00605
upperback 1.46374 6.88229 -0.533452
thorax -5.98566 3.24318 -2.96374
lowerneck -14.2056 -6.81158 -3.7635
upperneck 1.5997 -9.07874 7.53821
head 3.26976 -4.29927 2.24425
rclavicle -1.69961e-014 -3.24019e-014
rhumerus -36.8951 13.814 -93.4636
rradius 92.2757
rwrist 0.931348
rhand -22.1707 3.7847
rfingers 7.12502
rthumb 4.24396 -26.1528
lclavicle -1.69961e-014 -3.24019e-014
lhumerus -68.8789 3.69668 80.1604
lradius 97.9077
lwrist 19.6278
lhand -21.4513 -18.3911
lfingers 7.12502
lthumb 4.93864 11.5313
rfemur 5.75528 -4.15388 24.5192
rtibia 68.4909
rfoot 7.5824 -8.458
rtoes -26.58
lfemur -67.5134 -2.72961 -20.7944
ltibia 54.5014
lfoot 0.56201 -8.7009
ltoes 2.12599
41
root 12.7332 15.3304 21.9198 -170.374 -21.8289 185.221
lowerback 15.1771 4.73502 0.814011
upperback 1.64232 6.1496 -0.762847
thorax -6.55225 2.88315 -2.50838
lowerneck -14.3646 -6.73986 -3.91718
upperneck 1.80724 -9.0007 7.97467
head 3.38428 -4.23651 2.39733
rclavicle 1.36167e-013 -1.31198e-014
rhumerus -36.4477 12.541 -93.1572
rradius 87.6956
rwrist 0.0130483
rhand -22.8352 3.70874
rfingers 7.12502
rthumb 3.60227 -26.2406
lclavicle 1.36167e-013 -1.31198e-014
lhumerus -62.3594 3.52807 83.1977
lradius 95.5703
lwrist 20.0958
lhand -21.8936 -19.2941
lfingers 7.12502
lthumb 4.51151 10.6378
rfemur 2.70844 -6.1712 22.5635
rtibia 76.3567
rfoot 5.37885 -8.32384
rtoes -24.646
lfemur -65.4607 -3.39833 -22.0063
ltibia 56.1823
lfoot -0.802705 -8.76625
ltoes 3.74436
42
root 12.648 15.3982 21.4841 -171.017 -22.7691 184.184
lowerback 16.1807 4.44689 -0.380134
upperback 1.79413 5.50783 -0.969738
thorax -7.06096 2.57425 -2.01118
lowerneck -14.6491 -6.717 -4.06924
upperneck 2.22182 -8.99301 8.38065
head 3.584 -4.19906 2.52901
rclavicle 2.3059e-014 -3.18055e-015
rhumerus -36.0665 11.2386 -92.4163
rradius 83.4553
rwrist -1.02338
rhand -23.4664 3.65685
rfingers 7.12502
rthumb 2.99271 -26.3019
lclavicle 2.3059e-014 -3.18055e-015
lhumerus -55.5538 2.33174 86.1918
lradius 92.9065
lwrist 20.4382
lhand -22.1834 -20.3542
lfingers 7.12502
lthumb 4.23163 9.58349
rfemur -0.645099 -8.16132 20.3487
rtibia 84.1359
rfoot 3.20028 -7.44665
rtoes -22.7155
lfemur -63.3321 -3.99618 -23.1418
ltibia 57.5608
lfoot -2.55257 -8.62264
ltoes 4.72612
43
root 12.5612 15.4653 21.0632 -171.499 -23.6367 183.232
lowerback 17.0028 4.2388 -1.50262
upperback 1.89986 4.9683 -1.14413
thorax -7.49305 2.32172 -1.50985
lowerneck -15.0867 -6.7419 -4.23109
upperneck 2.85391 -9.05748 8.78366
head 3.87972 -4.18503 2.64844
rclavicle -1.01579e-013 -5.1684e-015
rhumerus -35.8826 9.94944 -91.2792
rradius 79.8997
rwrist -2.03016
rhand -23.9513 3.63199
rfingers 7.12502
rthumb 2.52438 -26.3328
lclavicle -1.01579e-013 -5.1684e-015
lhumerus -48.7024 0.163866 88.9129
lradius 90.2
lwrist 20.5831
lhand -22.2719 -21.4786
lfingers 7.12502
lthumb 4.14624 8.46083
rfemur -4.34366 -10.1531 17.9577
rtibia 91.7357
rfoot 1.03498 -6.07756
rtoes -21.1126
lfemur -61.2358 -4.49808 -24.1578
ltibia 58.6329
lfoot -4.34643 -8.449
ltoes 5.29107
44
root 12.4729 15.5302 20.6577 -171.814 -24.4263 182.416
lowerback 17.6367 4.08762 -2.48458
upperback 1.93651 4.52643 -1.29076
thorax -7.87059 2.12164 -1.05681
lowerneck -15.6171 -6.79752 -4.399
upperneck 3.62242 -9.17434 9.20115
head 4.23823 -4.18711 2.76512
rclavicle 3.24019e-014 -2.3059e-014
rhumerus -36.0332 8.72701 -89.8129
rradius 77.3734
rwrist -2.93121
rhand -24.1997 3.65011
rfingers 7.12502
rthumb 2.28447 -26.3174
lclavicle 3.24019e-014 -2.3059e-014
lhumerus -42.0396 -2.81654 91.1699
lradius 87.7811
lwrist 20.405
lhand -22.1982 -22.5514
lfingers 7.12502
lthumb 4.21739 7.3866
rfemur -8.43612 -12.202 15.4459
rtibia 99.1016
rfoot -1.1389 -4.43891
rtoes -19.7076
lfemur -59.2568 -4.90076 -25.0153
ltibia 59.4604
lfoot -6.06072 -8.30611
ltoes 5.93183
45
root 12.3855 15.5929 20.2664 -171.997 -25.2168 181.737
lowerback 18.1284 3.93643 -3.30971
upperback 1.9218 4.11763 -1.40253
thorax -8.20522 1.94108 -0.64651
lowerneck -16.2033 -6.85596 -4.5808
upperneck 4.41049 -9.3024 9.63649
head 4.61657 -4.18966 2.88803
rclavicle 3.99557e-014 1.23246e-014
rhumerus -36.5456 7.67554 -88.0675
rradius 76.1263
rwrist -3.70757
rhand -24.1495 3.72444
rfingers 7.12502
rthumb 2.33299 -26.2425
lclavicle 3.99557e-014 1.23246e-014
lhumerus -35.6846 -6.33201 92.8311
lradius 85.931
lwrist 19.7457
lhand -22.1528 -23.4013
lfingers 7.12502
lthumb 4.26122 6.53582
rfemur -12.8621 -14.4627 12.8347
rtibia 106.147
rfoot -3.30303 -2.69364
rtoes -18.2519
lfemur -57.4065 -5.27151 -25.69
ltibia 60.1034
lfoot -7.75354 -8.21573
ltoes 6.62867
